<?xml version="1.0" standalone="no"?>
<!DOCTYPE svg PUBLIC "-//W3C//DTD SVG 20010904//EN"
 "http://www.w3.org/TR/2001/REC-SVG-20010904/DTD/svg10.dtd">
<svg version="1.0" xmlns="http://www.w3.org/2000/svg"
 width="500.000000pt" height="500.000000pt" viewBox="0 0 500.000000 500.000000"
 preserveAspectRatio="xMidYMid meet">
<metadata>
Created by potrace 1.15, written by Peter Selinger 2001-2017
</metadata>
<g transform="translate(0.000000,500.000000) scale(0.100000,-0.100000)"
fill="#000000" stroke="none">
<path d="M2847 4455 c-13 -28 -17 -65 -17 -175 0 -127 2 -142 20 -160 11 -11
31 -20 45 -20 14 0 34 9 45 20 18 18 20 33 20 160 0 168 -13 210 -65 210 -26
0 -34 -6 -48 -35z"/>
<path d="M2042 4134 c-51 -35 -19 -98 111 -221 83 -78 118 -91 150 -55 38 41
24 69 -91 184 -65 65 -116 108 -128 108 -11 0 -30 -7 -42 -16z"/>
<path d="M3575 4033 c-67 -67 -105 -114 -105 -127 0 -36 28 -66 62 -66 26 0
48 17 130 98 55 53 106 110 115 126 14 26 13 30 -8 52 -15 16 -34 24 -55 24
-29 0 -47 -14 -139 -107z"/>
<path d="M2775 3965 c-141 -26 -246 -79 -352 -179 -41 -38 -97 -103 -125 -144
l-50 -74 -61 9 c-390 53 -762 -140 -936 -484 -43 -87 -79 -218 -93 -348 l-13
-110 -64 -42 c-35 -23 -92 -69 -126 -103 -260 -258 -247 -688 28 -936 67 -60
133 -98 232 -132 l80 -27 1205 0 c1127 0 1209 1 1270 18 204 56 367 200 436
384 34 91 45 153 45 253 -1 214 -105 405 -286 526 -89 58 -105 80 -105 138 0
77 -59 236 -117 313 -15 21 -49 62 -75 91 -50 56 -53 65 -63 197 -7 96 -52
236 -101 316 -149 246 -453 385 -729 334z m265 -136 c205 -45 383 -238 425
-462 24 -124 28 -119 -66 -86 -44 16 -122 34 -172 40 -116 14 -224 -3 -355
-55 l-91 -37 -76 79 c-76 80 -166 148 -262 196 -29 14 -53 32 -53 39 0 21 54
99 96 139 80 76 217 140 338 158 56 9 146 4 216 -11z"/>
<path d="M3762 3314 c-30 -20 -31 -88 -3 -104 11 -6 87 -10 175 -10 173 0 186
5 186 64 0 60 -18 66 -186 66 -119 0 -154 -3 -172 -16z"/>
</g>
</svg>
