<?xml version="1.0" standalone="no"?>
<!DOCTYPE svg PUBLIC "-//W3C//DTD SVG 20010904//EN"
 "http://www.w3.org/TR/2001/REC-SVG-20010904/DTD/svg10.dtd">
<svg version="1.0" xmlns="http://www.w3.org/2000/svg"
 width="500.000000pt" height="500.000000pt" viewBox="0 0 500.000000 500.000000"
 preserveAspectRatio="xMidYMid meet">
<metadata>
Created by potrace 1.15, written by Peter Selinger 2001-2017
</metadata>
<g transform="translate(0.000000,500.000000) scale(0.100000,-0.100000)"
fill="#000000" stroke="none">
<path d="M3022 4174 c4 -10 29 -75 58 -144 104 -254 149 -454 159 -715 6 -168
-4 -316 -29 -450 -14 -72 -58 -212 -68 -219 -8 -5 -20 3 -302 197 -493 338
-937 702 -1464 1201 -75 71 -139 126 -142 123 -21 -21 503 -706 822 -1076 228
-264 230 -266 214 -256 -8 5 -96 62 -195 128 -393 262 -782 554 -1163 871
-123 103 -220 181 -216 174 17 -29 309 -413 409 -538 443 -553 876 -1007 1284
-1344 74 -61 148 -123 164 -137 l30 -25 -81 -42 c-166 -87 -336 -140 -528
-167 -107 -15 -395 -21 -469 -10 -442 67 -776 190 -1090 400 -72 48 -134 89
-138 92 -37 23 163 -242 284 -376 486 -542 1241 -898 1889 -890 325 4 547 60
855 219 195 100 279 124 440 124 100 0 131 -4 185 -23 133 -47 247 -146 322
-278 17 -29 34 -53 38 -53 33 0 46 227 21 370 -39 222 -146 462 -300 666 l-23
32 25 108 c67 282 53 611 -39 929 -46 159 -130 301 -300 503 -155 186 -472
492 -610 592 -38 27 -46 30 -42 14z"/>
</g>
</svg>
