<?xml version="1.0" standalone="no"?>
<!DOCTYPE svg PUBLIC "-//W3C//DTD SVG 20010904//EN"
 "http://www.w3.org/TR/2001/REC-SVG-20010904/DTD/svg10.dtd">
<svg version="1.0" xmlns="http://www.w3.org/2000/svg"
 width="500.000000pt" height="500.000000pt" viewBox="0 0 500.000000 500.000000"
 preserveAspectRatio="xMidYMid meet">
<metadata>
Created by potrace 1.15, written by Peter Selinger 2001-2017
</metadata>
<g transform="translate(0.000000,500.000000) scale(0.100000,-0.100000)"
fill="#000000" stroke="none">
<path d="M1131 4603 c-53 -26 -83 -81 -88 -161 -3 -44 1 -76 9 -92 12 -22 110
-90 129 -90 4 0 13 29 20 65 7 36 16 66 21 66 4 1 17 1 28 1 11 0 618 0 1349
-1 l1329 -1 7 -32 c14 -71 11 -68 85 -68 l68 0 7 64 c13 127 -15 204 -90 241
-39 20 -62 20 -1440 22 -1287 3 -1403 1 -1434 -14z"/>
<path d="M1004 4090 c-150 -17 -214 -106 -184 -259 5 -29 10 -55 10 -57 0 -2
36 -4 79 -4 87 0 83 -3 96 73 l6 37 1558 0 1558 0 14 -52 14 -53 77 -3 c74 -3
78 -2 82 20 32 157 -7 255 -115 289 -36 11 -316 14 -1589 15 -850 1 -1572 -2
-1606 -6z"/>
<path d="M716 3555 c-58 -21 -88 -46 -113 -95 -25 -48 -29 -111 -12 -172 l10
-38 90 0 c97 0 93 -2 104 63 l6 37 1768 0 1768 0 14 -52 14 -53 92 -3 92 -3 6
44 c9 61 -2 153 -25 197 -14 27 -34 45 -67 61 l-48 24 -1830 2 c-1555 2 -1836
0 -1869 -12z"/>
<path d="M650 3040 c-32 -11 -64 -30 -76 -46 -49 -61 -48 -36 -49 -1394 l0
-1275 21 -46 c25 -54 64 -84 125 -98 62 -15 3750 -15 3801 -1 48 14 96 55 117
100 14 32 16 161 18 1315 1 1042 -1 1289 -12 1330 -17 65 -65 109 -134 124
-37 8 -581 11 -1904 11 -1791 -1 -1854 -1 -1907 -20z m3740 -1425 l0 -1225
-1820 0 -1820 0 0 1225 0 1225 1820 0 1820 0 0 -1225z"/>
<path d="M2926 2406 c74 -182 105 -376 85 -535 -12 -95 -24 -151 -42 -198 -9
-24 -10 -24 -137 63 -274 188 -525 390 -775 626 -70 66 -130 118 -132 116 -12
-12 315 -437 470 -613 39 -44 75 -86 79 -94 27 -44 -490 332 -712 518 -74 61
-130 106 -126 99 19 -32 192 -256 284 -369 216 -264 423 -476 648 -663 45 -38
82 -71 82 -72 0 -11 -132 -68 -207 -90 -123 -36 -303 -44 -439 -19 -186 33
-382 109 -520 202 -84 56 -89 59 -79 42 5 -8 38 -52 74 -99 141 -182 318 -326
526 -430 198 -98 354 -140 545 -145 187 -5 327 28 510 121 134 68 241 82 342
44 54 -20 124 -83 162 -144 26 -42 37 -21 37 75 0 142 -56 305 -147 430 l-34
47 17 68 c24 101 22 302 -6 424 -37 166 -102 270 -290 463 -95 97 -229 217
-244 217 -3 0 10 -38 29 -84z"/>
</g>
</svg>
